<?xml version="1.0" encoding="UTF-8" standalone="no" ?>
<!DOCTYPE svg PUBLIC "-//W3C//DTD SVG 1.1//EN" "http://www.w3.org/Graphics/SVG/1.1/DTD/svg11.dtd">
<svg xmlns="http://www.w3.org/2000/svg" xmlns:xlink="http://www.w3.org/1999/xlink" version="1.1" width="640" height="640" viewBox="0 0 640 640" xml:space="preserve">
<desc>Created with Fabric.js 5.3.0</desc>
<defs>
</defs>
<g transform="matrix(0.9816586877 0 0 0.9816586877 320 320)" id="m1pjZ3lu4l8BeM46GBmMZ"  >
<path style="stroke: rgb(72,115,247); stroke-width: 0; stroke-dasharray: none; stroke-linecap: butt; stroke-dashoffset: 0; stroke-linejoin: miter; stroke-miterlimit: 4; fill: rgb(8,40,100); fill-rule: nonzero; opacity: 1;"  transform=" translate(0, 0)" d="M -325.97888 -325.97888 L 325.97888 -325.97888 L 325.97888 325.97888 L -325.97888 325.97888 z" stroke-linecap="round" />
</g>
<g transform="matrix(1 0 0 1 240 180)" id="iRBV7SC-wymsVAnMtfLZo"  >
<path style="stroke: rgb(110,112,136); stroke-width: 0; stroke-dasharray: none; stroke-linecap: butt; stroke-dashoffset: 0; stroke-linejoin: miter; stroke-miterlimit: 4; fill: rgb(255,255,200); fill-rule: nonzero; opacity: 1;"  transform=" translate(-45.49147, -45.49147)" d="M 45.49147 0 C 70.60276 0 90.98294 20.38018 90.98294 45.49147 C 90.98294 70.60276 70.60276 90.98294 45.49147 90.98294 C 20.38018 90.98294 0 70.60276 0 45.49147 C 0 20.38018 20.38018 0 45.49147 0 z" stroke-linecap="round" />
</g>
<g transform="matrix(0.2145097568 0 0 1.0010455342 99.9999998624 320)" id="Z3F8jMynLn1zysQu0KXVT"  >
<path style="stroke: rgb(54,41,220); stroke-width: 0; stroke-dasharray: none; stroke-linecap: butt; stroke-dashoffset: 0; stroke-linejoin: miter; stroke-miterlimit: 4; fill: rgb(255,255,200); fill-rule: nonzero; opacity: 1;"  transform=" translate(0, 0)" d="M -279.70756 -260.66964 C -279.70756 -271.18399 -239.93092000000001 -279.70756 -190.86395 -279.70756 L 193.51484 -279.70756 L 193.51484 -279.70756 C 241.11775999999998 -279.70756 279.70754999999997 -271.43832 279.70754999999997 -261.23769 L 279.70754999999997 261.66204999999997 L 279.70754999999997 261.66204999999997 C 279.70754999999997 271.62830999999994 242.00438999999997 279.70755999999994 195.49518999999998 279.70755999999994 L -190.82457 279.70755999999994 L -190.82457 279.70755999999994 C -239.91329 279.70755999999994 -279.70756 271.18021999999996 -279.70756 260.6612099999999 z" stroke-linecap="round" />
</g>
<g transform="matrix(0.2145097568 0 0 1.0010455342 540.0000004018 320.00000382)" id="I5_CeqxCfsuruLg2f9r5g"  >
<path style="stroke: rgb(54,41,220); stroke-width: 0; stroke-dasharray: none; stroke-linecap: butt; stroke-dashoffset: 0; stroke-linejoin: miter; stroke-miterlimit: 4; fill: rgb(255,255,200); fill-rule: nonzero; opacity: 1;"  transform=" translate(0.000005, 0)" d="M -279.70756 -260.66964 C -279.70756 -271.18399 -239.93092000000001 -279.70756 -190.86395 -279.70756 L 193.51484 -279.70756 L 193.51484 -279.70756 C 241.11775999999998 -279.70756 279.70754999999997 -271.43832 279.70754999999997 -261.23769 L 279.70754999999997 261.66204999999997 L 279.70754999999997 261.66204999999997 C 279.70754999999997 271.62830999999994 242.00438999999997 279.70755999999994 195.49518999999998 279.70755999999994 L -190.82457 279.70755999999994 L -190.82457 279.70755999999994 C -239.91329 279.70755999999994 -279.70756 271.18021999999996 -279.70756 260.6612099999999 z" stroke-linecap="round" />
</g>
<g transform="matrix(1 0 0 1.4301796153 319.8941198348 384.3816257651)" id="eUkolaKXJ_vHcbquyyB9w"  >
<path style="stroke: rgb(86,95,57); stroke-width: 0; stroke-dasharray: none; stroke-linecap: butt; stroke-dashoffset: 0; stroke-linejoin: miter; stroke-miterlimit: 4; fill: rgb(255,255,200); fill-rule: nonzero; opacity: 1;"  transform=" translate(-159.9230056685, -42.6941391208)" d="M 319.84252 22.54001 C 320.42053999999996 55.654970000000006 249.24571999999998 83.78142 160.97015 85.32227999999999 C 72.69457999999999 86.86313999999999 0.5815199999999834 61.237779999999994 0.003500000000002501 28.12281999999999 C -0.1481899999999975 19.43276999999999 4.641360000000002 11.086249999999989 13.384500000000003 3.473549999999989 C 37.67025 24.90199999999999 95.22671 39.29927999999999 162.04269 38.13299999999999 C 227.15291 36.99649999999999 282.95993999999996 21.396809999999988 307.53405 -1.4210854715202004e-14 C 315.33401 6.882269999999986 319.702 14.489839999999985 319.84252 22.540009999999985 z" stroke-linecap="round" />
</g>
<g transform="matrix(1 0 0 1 400 180)" id="3hX84ICGIhHkfMjpacSeE"  >
<path style="stroke: rgb(110,112,136); stroke-width: 0; stroke-dasharray: none; stroke-linecap: butt; stroke-dashoffset: 0; stroke-linejoin: miter; stroke-miterlimit: 4; fill: rgb(255,255,200); fill-rule: nonzero; opacity: 1;"  transform=" translate(-45.4914788316, -45.4914788316)" d="M 45.49147 0 C 70.60276 0 90.98294 20.38018 90.98294 45.49147 C 90.98294 70.60276 70.60276 90.98294 45.49147 90.98294 C 20.38018 90.98294 0 70.60276 0 45.49147 C 0 20.38018 20.38018 0 45.49147 0 z" stroke-linecap="round" />
</g>
</svg>