<?xml version="1.0" standalone="no"?>
<!DOCTYPE svg PUBLIC "-//W3C//DTD SVG 20010904//EN"
 "http://www.w3.org/TR/2001/REC-SVG-20010904/DTD/svg10.dtd">
<svg version="1.0" xmlns="http://www.w3.org/2000/svg"
 width="700.000000pt" height="700.000000pt" viewBox="0 0 700.000000 700.000000"
 preserveAspectRatio="xMidYMid meet">
<metadata>
Created by potrace 1.14, written by Peter Selinger 2001-2017
</metadata>
<g transform="translate(0.000000,700.000000) scale(0.100000,-0.100000)"
fill="#000000" stroke="none">
<path d="M0 3500 l0 -3500 3500 0 3500 0 0 3500 0 3500 -3500 0 -3500 0 0
-3500z m1641 3037 c24 -13 58 -43 74 -66 l30 -43 5 -1666 c3 -917 6 -1656 8
-1642 5 50 50 159 92 222 l42 65 73 -72 c244 -241 685 -409 1194 -455 188 -18
567 -8 736 18 294 46 526 114 744 218 169 81 279 154 390 260 l88 84 26 -38
c45 -68 79 -144 92 -206 11 -52 14 187 14 1559 1 1549 2 1622 20 1660 22 48
60 87 105 109 30 14 97 16 533 16 462 0 501 -2 538 -19 49 -22 91 -69 105
-119 8 -26 10 -903 8 -2947 l-3 -2910 -23 -33 c-13 -17 -40 -44 -59 -60 l-36
-27 -514 -3 c-490 -2 -514 -2 -550 17 -49 25 -88 66 -107 113 -14 33 -16 178
-17 1260 0 1041 -3 1214 -14 1163 -84 -382 -596 -710 -1285 -824 -400 -66
-856 -51 -1228 40 -167 41 -273 79 -427 154 -290 140 -479 333 -529 543 -13
50 -14 -95 -15 -1126 -1 -1044 -3 -1187 -16 -1220 -20 -47 -50 -79 -98 -103
-36 -19 -60 -19 -551 -17 l-514 3 -43 30 c-23 17 -53 50 -66 74 l-23 44 2
2918 3 2917 30 43 c17 23 50 53 74 66 l44 23 502 0 502 0 44 -23z m1075 -1018
c183 -33 341 -182 389 -366 19 -74 19 -173 0 -248 -49 -187 -218 -338 -410
-364 -246 -35 -487 125 -550 364 -45 176 8 360 141 485 122 114 269 158 430
129z m1750 0 c183 -33 341 -182 389 -366 19 -74 19 -173 0 -248 -49 -187 -218
-338 -410 -364 -246 -35 -487 125 -550 364 -45 176 8 360 141 485 122 114 269
158 430 129z"/>
</g>
</svg>
